REM DIRINDEX 1\2,1\3,1\4,1\5
REM DIRNAME folder01,folder02,folder03,folder04,folder05
TITLE ""
FILE "1Q_t_1337-1346.mp3" MP3
  TRACK 01 AUDIO
    TITLE "3:cjc004_4916"
    INDEX 01 00:00:00
  TRACK 02 AUDIO
    TITLE "0:"
    INDEX 01 00:00:68
  TRACK 03 AUDIO
    TITLE "4:cjc004_4917"
    INDEX 01 00:01:19
  TRACK 04 AUDIO
    TITLE "0:"
    INDEX 01 00:02:45
  TRACK 05 AUDIO
    TITLE "5:cjc004_4918"
    INDEX 01 00:02:67
  TRACK 06 AUDIO
    TITLE "0:"
    INDEX 01 00:07:72
  TRACK 07 AUDIO
    TITLE "3:cjc004_4919"
    INDEX 01 00:08:48
  TRACK 08 AUDIO
    TITLE "0:"
    INDEX 01 00:09:63
  TRACK 09 AUDIO
    TITLE "4:cjc004_4920"
    INDEX 01 00:10:19
  TRACK 10 AUDIO
    TITLE "0:"
    INDEX 01 00:12:03
  TRACK 11 AUDIO
    TITLE "5:cjc004_4921"
    INDEX 01 00:12:22
  TRACK 12 AUDIO
    TITLE "0:"
    INDEX 01 00:17:00
  TRACK 13 AUDIO
    TITLE "3:cjc004_4922"
    INDEX 01 00:17:57
  TRACK 14 AUDIO
    TITLE "0:"
    INDEX 01 00:18:74
  TRACK 15 AUDIO
    TITLE "4:cjc004_4923"
    INDEX 01 00:19:28
  TRACK 16 AUDIO
    TITLE "0:"
    INDEX 01 00:20:61
  TRACK 17 AUDIO
    TITLE "5:cjc004_4924"
    INDEX 01 00:21:13
  TRACK 18 AUDIO
    TITLE "0:"
    INDEX 01 00:25:29
  TRACK 19 AUDIO
    TITLE "3:cjc004_4925"
    INDEX 01 00:26:07
  TRACK 20 AUDIO
    TITLE "0:"
    INDEX 01 00:27:41
  TRACK 21 AUDIO
    TITLE "4:cjc004_4926"
    INDEX 01 00:27:69
  TRACK 22 AUDIO
    TITLE "0:"
    INDEX 01 00:29:09
  TRACK 23 AUDIO
    TITLE "5:cjc004_4927"
    INDEX 01 00:29:38
  TRACK 24 AUDIO
    TITLE "0:"
    INDEX 01 00:33:69
  TRACK 25 AUDIO
    TITLE "3:cjc004_4928"
    INDEX 01 00:34:45
  TRACK 26 AUDIO
    TITLE "0:"
    INDEX 01 00:35:59
  TRACK 27 AUDIO
    TITLE "4:cjc004_4929"
    INDEX 01 00:36:11
  TRACK 28 AUDIO
    TITLE "0:"
    INDEX 01 00:37:30
  TRACK 29 AUDIO
    TITLE "5:cjc004_4930"
    INDEX 01 00:37:48
  TRACK 30 AUDIO
    TITLE "0:"
    INDEX 01 00:41:49
  TRACK 31 AUDIO
    TITLE "3:cjc004_4931"
    INDEX 01 00:42:25
  TRACK 32 AUDIO
    TITLE "0:"
    INDEX 01 00:43:46
  TRACK 33 AUDIO
    TITLE "4:cjc004_4932"
    INDEX 01 00:44:01
  TRACK 34 AUDIO
    TITLE "0:"
    INDEX 01 00:45:20
  TRACK 35 AUDIO
    TITLE "5:cjc004_4933"
    INDEX 01 00:45:37
  TRACK 36 AUDIO
    TITLE "0:"
    INDEX 01 00:49:47
  TRACK 37 AUDIO
    TITLE "3:cjc004_4934"
    INDEX 01 00:50:25
  TRACK 38 AUDIO
    TITLE "0:"
    INDEX 01 00:51:34
  TRACK 39 AUDIO
    TITLE "4:cjc004_4935"
    INDEX 01 00:51:65
  TRACK 40 AUDIO
    TITLE "0:"
    INDEX 01 00:53:04
  TRACK 41 AUDIO
    TITLE "5:cjc004_4936"
    INDEX 01 00:53:29
  TRACK 42 AUDIO
    TITLE "0:"
    INDEX 01 00:57:68
  TRACK 43 AUDIO
    TITLE "3:cjc004_4937"
    INDEX 01 00:58:46
  TRACK 44 AUDIO
    TITLE "0:"
    INDEX 01 00:59:71
  TRACK 45 AUDIO
    TITLE "4:cjc004_4938"
    INDEX 01 01:00:21
  TRACK 46 AUDIO
    TITLE "0:"
    INDEX 01 01:01:74
  TRACK 47 AUDIO
    TITLE "5:cjc004_4939"
    INDEX 01 01:02:24
  TRACK 48 AUDIO
    TITLE "0:"
    INDEX 01 01:07:45
  TRACK 49 AUDIO
    TITLE "3:cjc004_4940"
    INDEX 01 01:08:23
  TRACK 50 AUDIO
    TITLE "0:"
    INDEX 01 01:09:40
  TRACK 51 AUDIO
    TITLE "4:cjc004_4941"
    INDEX 01 01:09:65
  TRACK 52 AUDIO
    TITLE "0:"
    INDEX 01 01:11:35
  TRACK 53 AUDIO
    TITLE "5:cjc004_4942"
    INDEX 01 01:11:56
  TRACK 54 AUDIO
    TITLE "0:"
    INDEX 01 01:15:46
  TRACK 55 AUDIO
    TITLE "3:cjc004_4943"
    INDEX 01 01:16:20
  TRACK 56 AUDIO
    TITLE "0:"
    INDEX 01 01:17:28
  TRACK 57 AUDIO
    TITLE "4:cjc004_4944"
    INDEX 01 01:17:53
  TRACK 58 AUDIO
    TITLE "0:"
    INDEX 01 01:19:13
  TRACK 59 AUDIO
    TITLE "5:cjc004_4945"
    INDEX 01 01:19:36
  TRACK 60 AUDIO
    TITLE "0:"
    INDEX 01 01:24:08
